<?xml version="1.0"?>
<svg xmlns="http://www.w3.org/2000/svg" height="512px" viewBox="-31 0 512 512" width="512px"><path d="m450 0h-270v151h-20l-120 90h-40v180h152.816406l27.183594-27.183594v118.183594h270zm-30 68.769531c-17.339844-7.546875-31.222656-21.429687-38.769531-38.769531h38.769531zm-171.230469-38.769531c-7.546875 17.339844-21.429687 31.222656-38.769531 38.769531v-38.769531zm-108.382812 361h-110.386719v-120h20l120-90h10v75.730469l-39.738281 33.914062 19.476562 22.820313 73.382813-62.632813c13.714844-11.703125 33.894531-12.085937 48.019531-.582031zm173.21875-149.136719c-6.351563-9.527343-14.972657-17.15625-24.917969-22.351562 7.535156-5.429688 16.6875-8.511719 26.3125-8.511719 24.8125 0 45 20.1875 45 45s-20.1875 45-45 45c-11.445312 0-22.191406-4.28125-30.386719-11.800781l36.328125-36.328125zm-50.226563 68.570313c13.761719 13.09375 32.085938 20.566406 51.621094 20.566406 41.355469 0 75-33.644531 75-75s-33.644531-75-75-75c-24.226562 0-46.6875 11.644531-60.691406 30.933594-14.835938.707031-29.179688 6.285156-40.660156 16.082031l-3.648438 3.109375v-130.480469c33.929688-10.074219 60.570312-36.714843 70.644531-70.644531h68.710938c10.074219 33.929688 36.714843 60.570312 70.644531 70.644531v309.734375c-34.082031 10.238282-60.722656 37.890625-70.65625 71.621094h-68.6875c-9.953125-33.800781-36.640625-61.402344-70.65625-71.621094v-46.5625zm-53.378906 131.953125c17.160156 7.746093 31.171875 22.050781 38.777344 39.613281h-38.777344zm171.222656 39.613281c7.605469-17.5625 21.617188-31.867188 38.777344-39.613281v39.613281zm0 0" fill="#666666"/><path d="m300 361h30v60h-30zm0 0" fill="#666666"/><path d="m300 90h30v61h-30zm0 0" fill="#666666"/></svg>
